# xmcd
# 
# Track frame offsets:
#     150
#     22966
#     45769
#     61705
#     73102
#     108756
#     131556
#     151626
#     172543
# 
# Disc length: 2574
# 
# Revision: 1
# Processed by: cddbd v1.5.2PL0 Copyright (c) Steve Scherf et al.
# Submitted via: fre:ac v1.0.27
# 
DISCID=570a0c09
DTITLE=Outlaw Family Band - Outlaw Family Band
DYEAR=2005
DGENRE=Newgrass
TTITLE0=Queen Of Desire
TTITLE1=Birchmont Hotel
TTITLE2=Caroline
TTITLE3=Ravenswood Getaway (Part 1)
TTITLE4=Light Of My Backdoor
TTITLE5=Waste Of Time
TTITLE6=WWIII
TTITLE7=When I'm Gone
TTITLE8=The Drifter
EXTD=
EXTT0=
EXTT1=
EXTT2=
EXTT3=
EXTT4=
EXTT5=
EXTT6=
EXTT7=
EXTT8=
PLAYORDER=
